<?xml version="1.0" standalone="no"?>
<!DOCTYPE svg PUBLIC "-//W3C//DTD SVG 20010904//EN"
 "http://www.w3.org/TR/2001/REC-SVG-20010904/DTD/svg10.dtd">
<svg version="1.0" xmlns="http://www.w3.org/2000/svg"
 width="541.000000pt" height="541.000000pt" viewBox="0 0 541.000000 541.000000"
 preserveAspectRatio="xMidYMid meet">
<metadata>
Created by potrace 1.11, written by Peter Selinger 2001-2013
</metadata>
<g transform="translate(0.000000,541.000000) scale(0.100000,-0.100000)"
fill="#000000" stroke="none">
<path d="M3215 5223 c-68 -14 -146 -66 -171 -115 -8 -16 -27 -64 -41 -106 -14
-42 -45 -119 -69 -171 l-45 -95 -42 74 c-49 86 -76 108 -137 116 -68 8 -103
-21 -168 -136 -53 -97 -117 -249 -128 -307 -4 -18 -8 -33 -10 -33 -1 0 -31 7
-66 15 -163 37 -287 47 -314 24 -9 -7 -20 -22 -24 -33 -6 -19 -16 -21 -109
-21 -96 -1 -102 0 -107 20 -9 37 -52 54 -125 49 -122 -8 -149 -13 -180 -31
-34 -19 -68 -80 -64 -116 1 -12 3 -30 4 -39 1 -18 108 -131 189 -200 l44 -37
-29 -7 c-228 -51 -447 -146 -641 -278 -61 -41 -123 -85 -139 -98 -50 -41 -248
-242 -290 -293 -190 -235 -351 -601 -387 -877 -3 -18 -5 -33 -6 -33 -1 0 -4
-25 -8 -55 -14 -118 -6 -479 12 -531 3 -7 8 -32 11 -54 3 -22 17 -82 31 -133
90 -334 265 -631 513 -870 363 -351 821 -535 1331 -536 84 0 220 10 273 19 68
12 86 15 152 22 129 14 505 6 534 -11 9 -5 107 -17 206 -25 367 -29 730 50
1062 232 121 66 150 97 133 143 -7 18 -4 26 18 40 15 9 51 37 79 62 50 42 55
44 82 32 40 -16 65 -6 119 49 264 267 439 592 512 950 28 139 35 217 35 396 0
178 -5 223 -36 385 -110 565 -518 1080 -1051 1330 -72 34 -272 111 -281 109
-2 -1 -47 9 -100 23 l-39 9 24 20 c84 72 182 168 193 190 39 74 13 158 -59
189 -50 21 -84 24 -358 24 -120 1 -218 3 -218 5 0 2 20 43 44 91 62 122 128
320 128 381 -1 89 -56 175 -138 217 -40 20 -113 32 -149 25z"/>
</g>
</svg>
