<svg id="Capa_1" enable-background="new 0 0 507.435 507.435" height="512" viewBox="0 0 507.435 507.435" width="512" xmlns="http://www.w3.org/2000/svg"><path d="m280.357 468.068h-240.441v-384.83h-28.997l51.662-73.341 51.662 73.341h-28.109v338.612h337.069v-27.645l73.341 51.662-73.341 51.662v-29.461h-61.489" fill="#e7e9ef"/><g><path d="m235.369 201.962 60.418 60.418 60.418-60.418-15.98-15.981 73.985-8.781-8.782 73.984-16.168-16.168-93.462 93.484-60.427-60.428-60.428 60.428-33.054-33.054z" fill="#a0e5a5"/><g><path d="m502.303 437.691-73.341-51.662c-6.418-4.521-15.759.255-15.759 8.176v17.646h-317.069v-318.612h18.109c7.851 0 12.736-9.284 8.175-15.759l-51.662-73.342c-3.877-5.504-12.454-5.532-16.351 0l-51.661 73.342c-4.521 6.418.255 15.759 8.175 15.759h18.998v374.83c0 5.522 4.477 10 10 10h240.44c12.84 0 12.859-20 0-20h-230.44v-374.83c0-11.105-12.119-10-19.722-10l32.386-45.977 32.386 45.977c-7.467 0-18.833-.758-18.833 10v338.611c0 5.522 4.477 10 10 10h337.069c10.568 0 10-10.976 10-18.369l45.976 32.386-45.976 32.386c0-7.661 1.361-20.185-10-20.185h-61.489c-12.84 0-12.859 20 0 20h51.489v19.461c0 7.823 9.354 12.685 15.759 8.176l73.341-51.662c5.504-3.879 5.531-12.453 0-16.352z"/><path d="m330.371 464.288c-1.642-3.938-5.705-6.464-9.971-6.144-4.178.313-7.76 3.279-8.892 7.301-2.437 8.656 7.48 15.885 15.001 11.101 4.039-2.57 5.701-7.839 3.862-12.258z"/><path d="m134.818 288.374c-3.905 3.905-3.905 10.237 0 14.143l33.054 33.055c3.855 3.854 10.287 3.854 14.143 0l53.356-53.356 53.357 53.356c3.855 3.855 10.287 3.854 14.142 0l86.39-86.414 9.097 9.097c5.714 5.714 16.04 2.213 17.001-5.892l8.782-73.984c.743-6.26-4.821-11.861-11.109-11.109l-73.984 8.782c-8.025.952-11.662 11.231-5.893 17.001l8.91 8.909-46.276 46.276-53.344-53.347c-3.795-3.795-10.344-3.801-14.146 0zm160.98 25.983-53.356-53.356c-3.905-3.904-10.237-3.904-14.143 0l-53.356 53.356-18.912-18.912 79.34-79.343 53.346 53.349c3.905 3.904 10.237 3.904 14.142 0l60.418-60.418c4.545-4.545 3.253-11.727-1.408-15.551l40.915-4.856-4.856 40.915c-3.854-4.751-11.055-6.28-15.739-1.596z"/></g></g></svg>